<svg width="168" height="55" viewBox="0 0 168 55" fill="none" xmlns="http://www.w3.org/2000/svg">
<path d="M66.73 16.58C62.42 16.58 59.04 19.91 59.04 24.16C59.04 28.6 62.35 31.96 66.73 31.96C71.11 31.96 74.42 28.61 74.42 24.16C74.42 19.91 71.04 16.58 66.73 16.58ZM66.73 29.66C63.88 29.66 61.65 27.24 61.65 24.16C61.65 21.19 63.88 18.87 66.73 18.87C69.58 18.87 71.81 21.19 71.81 24.16C71.8 27.25 69.57 29.66 66.73 29.66Z" fill="#191919"/>
<path d="M82.8302 23.19C81.3102 22.56 79.9902 22.01 79.9902 20.8C79.9902 19.71 81.0102 18.89 82.3702 18.89C84.0102 18.89 85.3102 19.85 85.6702 20.15L86.7602 18.11C86.4602 17.84 84.9702 16.58 82.3902 16.58C79.5702 16.58 77.4402 18.42 77.4402 20.85C77.4402 23.41 79.6702 24.37 81.6502 25.22C83.2102 25.89 84.5602 26.47 84.5602 27.71C84.5602 29.05 83.4101 29.64 82.2701 29.64C80.3801 29.64 78.9002 28.43 78.5302 28.1L77.1602 29.99C77.5002 30.33 79.2902 31.95 82.2302 31.95C85.0902 31.95 87.1002 30.18 87.1002 27.64C87.0802 24.95 84.8202 24.02 82.8302 23.19Z" fill="#191919"/>
<path d="M99.6002 16.83H89.9502V18.91H93.5902V31.7H95.9502V18.91H99.6002V16.83Z" fill="#191919"/>
<path d="M41.5699 7.51C37.1999 3.11 31.1499 0.380005 24.4699 0.380005C11.1799 0.380005 0.379883 11.19 0.379883 24.47C0.379883 37.76 11.1899 48.56 24.4699 48.56C31.1099 48.56 37.1399 45.86 41.4999 41.5C45.8599 37.14 53.4699 31.11 53.4699 24.47C53.4799 17.87 45.8999 11.87 41.5699 7.51ZM40.3599 38.15C36.8699 41.64 32.0499 43.8 26.7399 43.8C26.1399 43.8 25.5499 43.77 24.9699 43.72C24.6699 43.69 24.3799 43.66 24.0799 43.62C23.4999 43.7 22.9099 43.76 22.3099 43.78C22.0199 43.79 21.7199 43.8 21.4199 43.8C10.7899 43.8 2.13988 35.15 2.13988 24.52C2.13988 13.89 10.7899 5.24 21.4199 5.24C21.7199 5.24 22.0099 5.25 22.2999 5.26C22.8999 5.29 23.4899 5.34 24.0699 5.42C24.3599 5.38 24.6599 5.34 24.9499 5.32C25.5299 5.27 26.1199 5.24 26.7199 5.24C32.0599 5.24 36.8999 7.42001 40.3999 10.95C43.8599 14.44 49.9299 19.23 49.9299 24.52C49.9399 29.84 43.8499 34.66 40.3599 38.15Z" fill="#191919"/>
<path d="M7.45992 24.5201C7.45992 14.7901 14.4699 6.93005 24.0799 5.43005C12.2299 5.71005 3.91992 14.1901 3.91992 24.5201C3.91992 34.8501 13.8799 43.8901 24.0799 43.6101C14.7099 42.3101 7.45992 34.2501 7.45992 24.5201Z" fill="#D72864"/>
<path d="M36.8201 38.15C33.2701 41.71 28.6901 43.19 24.0801 43.61C24.3701 43.65 24.6701 43.69 24.9701 43.71C25.5501 43.76 26.1401 43.79 26.7401 43.79C32.0501 43.79 36.8701 41.63 40.3601 38.14C43.8501 34.65 49.9401 29.83 49.9401 24.52C49.9401 19.23 43.8701 14.44 40.4101 10.95C36.9201 7.42999 32.0701 5.23999 26.7301 5.23999C26.1301 5.23999 25.5401 5.26999 24.9601 5.31999C24.6601 5.34999 24.3701 5.37999 24.0801 5.41999C28.7201 5.83999 33.7701 7.80999 36.8701 10.94C40.3301 14.43 46.4001 19.22 46.4001 24.51C46.4001 29.84 40.3101 34.66 36.8201 38.15Z" fill="#8C195F"/>
<path d="M3.91941 24.52C3.91941 14.19 12.2294 5.72 24.0794 5.43C23.4994 5.35 22.9094 5.29 22.3094 5.27C22.0194 5.26 21.7194 5.25 21.4294 5.25C10.7994 5.25 2.14941 13.9 2.14941 24.53C2.14941 35.16 10.7994 43.81 21.4294 43.81C21.7294 43.81 22.0194 43.8 22.3194 43.79C22.9194 43.76 23.5094 43.71 24.0894 43.63C13.8994 43.89 3.91941 34.86 3.91941 24.52Z" fill="#8C195F"/>
<path d="M35.0501 38.1501C32.1501 41.0501 28.3401 43.0201 24.0801 43.6101C28.6901 43.1901 33.2601 41.7001 36.8201 38.1501C40.3101 34.6601 46.4001 29.8401 46.4001 24.5301C46.4001 19.2401 40.3301 14.4501 36.8701 10.9601C33.7701 7.83006 28.7101 5.87006 24.0801 5.44006C28.3601 6.03006 32.2001 8.03006 35.1001 10.9601C38.5601 14.4501 44.6301 19.2401 44.6301 24.5301C44.6301 29.8401 38.5401 34.6601 35.0501 38.1501Z" fill="#D72864"/>
<path d="M60.9199 43.33H63.7299V43.79H60.3799V38H63.6499V38.46H60.9199V40.61H63.4799V41.08H60.9199V43.33Z" fill="#191919"/>
<path d="M67.6596 43.13C67.6596 43.35 67.6996 43.45 67.9096 43.45C67.9796 43.45 68.0496 43.43 68.1596 43.4L68.1896 43.74C68.0296 43.82 67.8896 43.85 67.6996 43.85C67.3196 43.85 67.1896 43.62 67.1696 43.34C66.8696 43.66 66.3896 43.88 65.8096 43.88C64.7696 43.88 64.5996 43.17 64.5996 42.78C64.5996 41.62 65.6596 41.4 66.5796 41.4C66.8096 41.4 66.9596 41.41 67.1196 41.42V41.01C67.1196 40.39 66.9396 40.05 66.2296 40.05C65.5796 40.05 65.3596 40.31 65.2696 40.79L64.7696 40.7C64.8996 39.94 65.3896 39.62 66.2696 39.62C67.2496 39.62 67.6596 40 67.6596 41.02V43.13ZM67.1296 41.86C66.9996 41.84 66.8596 41.84 66.6296 41.84C66.0696 41.84 65.1696 41.88 65.1696 42.71C65.1696 43.11 65.3096 43.46 65.9496 43.46C66.4196 43.46 66.8896 43.2 67.1396 42.9V41.86H67.1296Z" fill="#191919"/>
<path d="M71.7895 40.86L71.2595 40.92C71.1595 40.38 71.0095 40.08 70.3395 40.08C69.6295 40.08 69.4595 40.39 69.4595 40.74C69.4595 41.22 69.8195 41.33 70.4395 41.48C71.1895 41.66 71.8595 41.82 71.8595 42.71C71.8595 43.41 71.3295 43.88 70.3495 43.88C69.4495 43.88 68.8895 43.54 68.7695 42.64L69.2795 42.55C69.3895 43.04 69.5795 43.41 70.3695 43.41C70.9095 43.41 71.3095 43.25 71.3095 42.73C71.3095 42.25 70.9795 42.15 70.3795 42C69.6995 41.82 68.8995 41.72 68.8995 40.79C68.8995 40 69.5795 39.61 70.3495 39.61C71.3395 39.62 71.6895 40.11 71.7895 40.86Z" fill="#191919"/>
<path d="M74.9998 43.63C74.7998 43.77 74.3998 43.8899 74.0698 43.8899C73.3398 43.8899 72.9799 43.5599 72.9799 42.7999V40.16H72.3398V39.7H72.9799V38.5299L73.5198 38.45V39.7H74.6599V40.15H73.5198V42.72C73.5198 43.18 73.6198 43.45 74.1498 43.45C74.3998 43.45 74.6998 43.35 74.8798 43.24L74.9998 43.63Z" fill="#191919"/>
<path d="M75.46 41.75C75.46 40.25 76.32 39.62 77.36 39.62C78.48 39.62 78.94 40.38 78.94 41.36C78.93 41.52 78.92 41.69 78.9 41.86H76.04C76.07 43.08 76.64 43.41 77.35 43.41C77.99 43.41 78.25 43.15 78.38 42.63L78.88 42.73C78.7 43.54 78.06 43.89 77.3 43.89C75.87 43.89 75.46 42.88 75.46 41.75ZM78.37 41.42C78.39 40.58 78.07 40.09 77.31 40.09C76.69 40.09 76.08 40.47 76.04 41.42H78.37Z" fill="#191919"/>
<path d="M82.1096 40.18C81.6096 40.09 80.9696 40.32 80.6396 40.65V43.78H80.0996V39.7H80.5396L80.5896 40.27C80.9796 39.74 81.4196 39.61 81.9796 39.62C82.0196 39.62 82.0596 39.62 82.1096 39.62V40.18Z" fill="#191919"/>
<path d="M86.1992 43.79H85.6592V41.09C85.6592 40.47 85.4392 40.1 84.8092 40.1C84.2692 40.1 83.6992 40.46 83.4492 40.68V43.79H82.9092V39.7H83.3792L83.4092 40.21C83.8492 39.88 84.3792 39.62 84.9492 39.62C85.8192 39.62 86.1892 40.11 86.1892 41.03V43.79H86.1992Z" fill="#191919"/>
<path d="M89.8093 39.41C89.8093 41.08 93.0093 40.18 93.0093 42.25C93.0093 43.43 92.0693 43.89 91.0393 43.89C89.7593 43.89 89.1493 43.33 88.9893 42.28L89.5293 42.2C89.6793 42.85 89.9993 43.42 91.0493 43.42C91.7093 43.42 92.4593 43.19 92.4593 42.32C92.4593 40.56 89.2593 41.62 89.2593 39.43C89.2593 38.49 90.0493 37.89 91.1493 37.89C92.1593 37.89 92.8593 38.32 92.9993 39.5L92.4893 39.56C92.3793 39 92.1493 38.37 91.1793 38.37C90.1493 38.38 89.8093 38.83 89.8093 39.41Z" fill="#191919"/>
<path d="M94.8198 43.79L93.5098 39.7H94.0598L95.1498 43.24L96.1198 39.7H96.6998L97.6498 43.2299L98.7298 39.7H99.2398L97.9498 43.79H97.2998L96.3798 40.2999L95.4498 43.79H94.8198Z" fill="#191919"/>
<path d="M100.32 38.71C100.05 38.71 99.8896 38.56 99.8896 38.29C99.8896 38.02 100.05 37.87 100.32 37.87C100.59 37.87 100.75 38.02 100.75 38.29C100.75 38.56 100.59 38.71 100.32 38.71ZM100.58 43.79H100.04V39.7H100.58V43.79Z" fill="#191919"/>
<path d="M104.09 43.63C103.89 43.77 103.49 43.8899 103.16 43.8899C102.43 43.8899 102.07 43.5599 102.07 42.7999V40.16H101.43V39.7H102.07V38.5299L102.61 38.45V39.7H103.75V40.15H102.61V42.72C102.61 43.18 102.71 43.45 103.24 43.45C103.49 43.45 103.79 43.35 103.97 43.24L104.09 43.63Z" fill="#191919"/>
<path d="M105.059 43.34H107.609V43.79H104.439V43.41L106.899 40.15H104.479V39.7H107.529V40.08L105.059 43.34Z" fill="#191919"/>
<path d="M108.149 41.75C108.149 40.25 109.009 39.62 110.049 39.62C111.169 39.62 111.629 40.38 111.629 41.36C111.619 41.52 111.609 41.69 111.589 41.86H108.729C108.759 43.08 109.329 43.41 110.039 43.41C110.679 43.41 110.939 43.15 111.069 42.63L111.569 42.73C111.389 43.54 110.749 43.89 109.989 43.89C108.569 43.89 108.149 42.88 108.149 41.75ZM111.059 41.42C111.079 40.58 110.759 40.09 109.999 40.09C109.379 40.09 108.769 40.47 108.729 41.42H111.059Z" fill="#191919"/>
<path d="M114.81 40.18C114.31 40.09 113.67 40.32 113.34 40.65V43.78H112.8V39.7H113.24L113.29 40.27C113.68 39.74 114.12 39.61 114.68 39.62C114.72 39.62 114.76 39.62 114.81 39.62V40.18Z" fill="#191919"/>
<path d="M116.149 43.79H115.609V37.75H116.149V43.79Z" fill="#191919"/>
<path d="M120.37 43.13C120.37 43.35 120.41 43.45 120.62 43.45C120.69 43.45 120.76 43.43 120.87 43.4L120.9 43.74C120.74 43.82 120.6 43.85 120.41 43.85C120.03 43.85 119.9 43.62 119.88 43.34C119.58 43.66 119.1 43.88 118.52 43.88C117.48 43.88 117.31 43.17 117.31 42.78C117.31 41.62 118.37 41.4 119.29 41.4C119.52 41.4 119.67 41.41 119.83 41.42V41.01C119.83 40.39 119.65 40.05 118.94 40.05C118.29 40.05 118.07 40.31 117.98 40.79L117.48 40.7C117.61 39.94 118.1 39.62 118.98 39.62C119.96 39.62 120.37 40 120.37 41.02V43.13ZM119.84 41.86C119.71 41.84 119.57 41.84 119.34 41.84C118.78 41.84 117.88 41.88 117.88 42.71C117.88 43.11 118.02 43.46 118.66 43.46C119.13 43.46 119.6 43.2 119.85 42.9V41.86H119.84Z" fill="#191919"/>
<path d="M125.109 43.79H124.569V41.09C124.569 40.47 124.349 40.1 123.719 40.1C123.179 40.1 122.609 40.46 122.359 40.68V43.79H121.819V39.7H122.289L122.319 40.21C122.759 39.88 123.289 39.62 123.859 39.62C124.729 39.62 125.099 40.11 125.099 41.03V43.79H125.109Z" fill="#191919"/>
<path d="M129.659 43.79H129.199L129.149 43.33C128.769 43.64 128.349 43.88 127.739 43.88C126.819 43.88 126.199 43.29 126.199 41.79C126.199 40.2 126.999 39.62 127.929 39.62C128.409 39.62 128.819 39.78 129.119 40V37.75H129.659V43.79ZM129.129 40.5C128.929 40.35 128.479 40.08 127.939 40.08C127.069 40.08 126.759 40.76 126.759 41.82C126.759 42.94 127.099 43.44 127.889 43.44C128.389 43.44 128.859 43.14 129.139 42.83V40.5H129.129Z" fill="#191919"/>
<path d="M63.9296 51.0899V47.2H64.4696V51.11C64.4696 52.44 63.7196 53.08 62.3696 53.08C60.9296 53.08 60.3496 52.3799 60.3496 51.0999V47.2H60.8896V51.07C60.8896 52.21 61.4696 52.61 62.4296 52.61C63.3896 52.61 63.9296 52.2399 63.9296 51.0899Z" fill="#191919"/>
<path d="M69.2695 52.9899H68.7295V50.2899C68.7295 49.6699 68.5095 49.2999 67.8795 49.2999C67.3395 49.2999 66.7695 49.6599 66.5195 49.8799V52.9899H65.9795V48.8999H66.4495L66.4795 49.41C66.9195 49.08 67.4495 48.8199 68.0195 48.8199C68.8895 48.8199 69.2595 49.3099 69.2595 50.2299V52.9899H69.2695Z" fill="#191919"/>
<path d="M70.93 47.9099C70.66 47.9099 70.5 47.7599 70.5 47.4899C70.5 47.2199 70.66 47.0699 70.93 47.0699C71.2 47.0699 71.36 47.2199 71.36 47.4899C71.36 47.7599 71.2 47.9099 70.93 47.9099ZM71.18 52.9899H70.64V48.8999H71.18V52.9899Z" fill="#191919"/>
<path d="M73.5495 52.99L71.9395 48.9H72.5194L73.8494 52.46L75.1694 48.9H75.7094L74.1395 52.99H73.5495Z" fill="#191919"/>
<path d="M76.1592 50.9499C76.1592 49.4499 77.0192 48.8199 78.0592 48.8199C79.1792 48.8199 79.6392 49.5799 79.6392 50.5599C79.6292 50.7199 79.6192 50.8899 79.5992 51.0599H76.7392C76.7692 52.2799 77.3392 52.6099 78.0492 52.6099C78.6892 52.6099 78.9492 52.3499 79.0792 51.8299L79.5792 51.9299C79.3992 52.7399 78.7592 53.0899 77.9992 53.0899C76.5792 53.0899 76.1592 52.0799 76.1592 50.9499ZM79.0692 50.6199C79.0892 49.7799 78.7692 49.2799 78.0092 49.2799C77.3892 49.2799 76.7792 49.6599 76.7392 50.6199H79.0692Z" fill="#191919"/>
<path d="M82.8196 49.38C82.3196 49.29 81.6796 49.52 81.3496 49.85V52.98H80.8096V48.9H81.2496L81.2996 49.47C81.6896 48.94 82.1296 48.81 82.6896 48.82C82.7296 48.82 82.7696 48.82 82.8196 48.82V49.38Z" fill="#191919"/>
<path d="M86.2094 50.0601L85.6795 50.1201C85.5795 49.5801 85.4295 49.2801 84.7595 49.2801C84.0495 49.2801 83.8794 49.5901 83.8794 49.9401C83.8794 50.4201 84.2395 50.5301 84.8595 50.6801C85.6095 50.8601 86.2794 51.0201 86.2794 51.9101C86.2794 52.6101 85.7494 53.0801 84.7694 53.0801C83.8694 53.0801 83.3095 52.7401 83.1895 51.8401L83.6994 51.7501C83.8094 52.2401 83.9995 52.6101 84.7895 52.6101C85.3295 52.6101 85.7295 52.4501 85.7295 51.9301C85.7295 51.4501 85.3995 51.3501 84.7995 51.2001C84.1195 51.0201 83.3195 50.9201 83.3195 49.9901C83.3195 49.2001 83.9994 48.8101 84.7694 48.8101C85.7694 48.8201 86.1194 49.3101 86.2094 50.0601Z" fill="#191919"/>
<path d="M87.6693 47.9099C87.3993 47.9099 87.2393 47.7599 87.2393 47.4899C87.2393 47.2199 87.3993 47.0699 87.6693 47.0699C87.9393 47.0699 88.0993 47.2199 88.0993 47.4899C88.0993 47.7599 87.9393 47.9099 87.6693 47.9099ZM87.9293 52.9899H87.3893V48.8999H87.9293V52.9899Z" fill="#191919"/>
<path d="M91.4393 52.83C91.2393 52.97 90.8393 53.09 90.5093 53.09C89.7793 53.09 89.4193 52.76 89.4193 52V49.36H88.7793V48.9H89.4193V47.73L89.9593 47.65V48.9H91.0993V49.35H89.9593V51.92C89.9593 52.38 90.0593 52.65 90.5893 52.65C90.8393 52.65 91.1393 52.55 91.3193 52.44L91.4393 52.83Z" fill="#191919"/>
<path d="M91.5598 48.9H92.1398L93.3398 52.35L94.5898 48.9H95.1298C94.6298 50.24 94.0098 51.86 93.4798 53.23C93.0498 54.4 92.7498 54.77 92.0398 54.77C91.7398 54.77 91.4598 54.69 91.2998 54.63L91.3798 54.21C91.5098 54.25 91.8198 54.33 92.0498 54.33C92.4298 54.33 92.7598 54.05 93.0598 53.02L91.5598 48.9Z" fill="#191919"/>
<path d="M97.4893 50.97C97.4893 49.64 98.1793 48.83 99.4293 48.83C100.679 48.83 101.199 49.65 101.199 50.87C101.199 52.21 100.659 53.09 99.3293 53.09C97.9393 53.09 97.4893 52.17 97.4893 50.97ZM100.639 50.91C100.639 49.7 100.179 49.29 99.3993 49.29C98.5893 49.29 98.0393 49.79 98.0393 50.94C98.0393 52.08 98.4793 52.64 99.3693 52.64C100.149 52.63 100.639 52.15 100.639 50.91Z" fill="#191919"/>
<path d="M104.1 47.44C103.94 47.38 103.71 47.34 103.52 47.34C103.14 47.34 102.88 47.51 102.88 48.08V48.9H104.04V49.35H102.88V52.99H102.34V49.35H101.72V48.9H102.34V48.16C102.34 47.31 102.72 46.88 103.44 46.88C103.74 46.88 103.98 46.94 104.12 47.01L104.1 47.44Z" fill="#191919"/>
<path d="M108.95 47.2L110.95 52.9899H110.36L109.74 51.1299H107.41L106.79 52.9899H106.26L108.23 47.2H108.95ZM108.57 47.6399L107.55 50.65H109.57L108.57 47.6399Z" fill="#191919"/>
<path d="M112.03 48.8999H112.5L112.53 49.3999C112.91 49.0899 113.37 48.8199 114 48.8199C114.86 48.8199 115.48 49.3499 115.48 50.8399C115.48 52.4299 114.68 53.0799 113.75 53.0799C113.27 53.0799 112.85 52.8599 112.54 52.6299V54.6799H112.02V48.8999H112.03ZM112.57 52.1399C112.77 52.2899 113.22 52.6299 113.76 52.6299C114.63 52.6299 114.94 51.8899 114.94 50.8199C114.94 49.6999 114.6 49.2599 113.87 49.2599C113.35 49.2599 112.83 49.5999 112.57 49.8699V52.1399Z" fill="#191919"/>
<path d="M116.65 48.8999H117.12L117.15 49.3999C117.53 49.0899 117.99 48.8199 118.62 48.8199C119.48 48.8199 120.1 49.3499 120.1 50.8399C120.1 52.4299 119.3 53.0799 118.37 53.0799C117.89 53.0799 117.47 52.8599 117.16 52.6299V54.6799H116.64V48.8999H116.65ZM117.18 52.1399C117.38 52.2899 117.83 52.6299 118.37 52.6299C119.24 52.6299 119.55 51.8899 119.55 50.8199C119.55 49.6999 119.21 49.2599 118.48 49.2599C117.96 49.2599 117.44 49.5999 117.18 49.8699V52.1399Z" fill="#191919"/>
<path d="M121.8 52.9899H121.26V46.95H121.8V52.9899Z" fill="#191919"/>
<path d="M123.48 47.9099C123.21 47.9099 123.05 47.7599 123.05 47.4899C123.05 47.2199 123.21 47.0699 123.48 47.0699C123.75 47.0699 123.91 47.2199 123.91 47.4899C123.91 47.7599 123.75 47.9099 123.48 47.9099ZM123.73 52.9899H123.19V48.8999H123.73V52.9899Z" fill="#191919"/>
<path d="M124.859 50.9499C124.859 49.4499 125.719 48.8199 126.759 48.8199C127.879 48.8199 128.339 49.5799 128.339 50.5599C128.329 50.7199 128.319 50.8899 128.299 51.0599H125.439C125.469 52.2799 126.039 52.6099 126.749 52.6099C127.389 52.6099 127.649 52.3499 127.779 51.8299L128.279 51.9299C128.099 52.7399 127.459 53.0899 126.699 53.0899C125.269 53.0899 124.859 52.0799 124.859 50.9499ZM127.769 50.6199C127.789 49.7799 127.469 49.2799 126.709 49.2799C126.089 49.2799 125.479 49.6599 125.439 50.6199H127.769Z" fill="#191919"/>
<path d="M132.68 52.9899H132.22L132.17 52.5299C131.79 52.8399 131.37 53.08 130.76 53.08C129.84 53.08 129.22 52.4899 129.22 50.9899C129.22 49.3999 130.02 48.82 130.95 48.82C131.43 48.82 131.84 48.9799 132.14 49.1999V46.95H132.68V52.9899ZM132.14 49.6999C131.94 49.5499 131.49 49.2799 130.95 49.2799C130.08 49.2799 129.77 49.9599 129.77 51.0199C129.77 52.1399 130.11 52.6399 130.9 52.6399C131.4 52.6399 131.87 52.3399 132.15 52.0299V49.6999H132.14Z" fill="#191919"/>
<path d="M136.309 48.61C136.309 50.28 139.509 49.38 139.509 51.45C139.509 52.63 138.569 53.09 137.539 53.09C136.259 53.09 135.649 52.53 135.489 51.48L136.029 51.4C136.179 52.05 136.499 52.62 137.549 52.62C138.209 52.62 138.959 52.39 138.959 51.52C138.959 49.76 135.759 50.82 135.759 48.63C135.759 47.69 136.549 47.09 137.649 47.09C138.659 47.09 139.359 47.52 139.499 48.7L138.989 48.76C138.879 48.2 138.649 47.57 137.679 47.57C136.649 47.58 136.309 48.03 136.309 48.61Z" fill="#191919"/>
<path d="M140.369 50.98C140.369 49.55 141.089 48.83 142.309 48.83C143.119 48.83 143.749 49.29 143.799 50.2L143.259 50.27C143.189 49.61 142.879 49.29 142.259 49.29C141.619 49.29 140.929 49.64 140.929 50.91C140.929 52.25 141.589 52.61 142.239 52.61C142.829 52.61 143.209 52.35 143.319 51.71L143.819 51.81C143.679 52.72 142.959 53.09 142.199 53.09C140.859 53.09 140.369 52.21 140.369 50.98Z" fill="#191919"/>
<path d="M145.209 47.9099C144.939 47.9099 144.779 47.7599 144.779 47.4899C144.779 47.2199 144.939 47.0699 145.209 47.0699C145.479 47.0699 145.639 47.2199 145.639 47.4899C145.639 47.7599 145.489 47.9099 145.209 47.9099ZM145.469 52.9899H144.929V48.8999H145.469V52.9899Z" fill="#191919"/>
<path d="M146.59 50.9499C146.59 49.4499 147.45 48.8199 148.49 48.8199C149.61 48.8199 150.07 49.5799 150.07 50.5599C150.06 50.7199 150.05 50.8899 150.03 51.0599H147.17C147.2 52.2799 147.77 52.6099 148.48 52.6099C149.12 52.6099 149.38 52.3499 149.51 51.8299L150.01 51.9299C149.83 52.7399 149.19 53.0899 148.43 53.0899C147.01 53.0899 146.59 52.0799 146.59 50.9499ZM149.5 50.6199C149.52 49.7799 149.2 49.2799 148.44 49.2799C147.82 49.2799 147.21 49.6599 147.17 50.6199H149.5Z" fill="#191919"/>
<path d="M154.52 52.9899H153.979V50.2899C153.979 49.6699 153.76 49.2999 153.13 49.2999C152.59 49.2999 152.02 49.6599 151.77 49.8799V52.9899H151.229V48.8999H151.699L151.729 49.41C152.169 49.08 152.7 48.8199 153.27 48.8199C154.14 48.8199 154.509 49.3099 154.509 50.2299V52.9899H154.52Z" fill="#191919"/>
<path d="M155.609 50.98C155.609 49.55 156.329 48.83 157.549 48.83C158.359 48.83 158.989 49.29 159.039 50.2L158.499 50.27C158.429 49.61 158.119 49.29 157.499 49.29C156.859 49.29 156.169 49.64 156.169 50.91C156.169 52.25 156.829 52.61 157.479 52.61C158.069 52.61 158.449 52.35 158.559 51.71L159.059 51.81C158.919 52.72 158.199 53.09 157.439 53.09C156.109 53.09 155.609 52.21 155.609 50.98Z" fill="#191919"/>
<path d="M159.899 50.9499C159.899 49.4499 160.759 48.8199 161.799 48.8199C162.919 48.8199 163.379 49.5799 163.379 50.5599C163.369 50.7199 163.359 50.8899 163.339 51.0599H160.479C160.509 52.2799 161.079 52.6099 161.789 52.6099C162.429 52.6099 162.689 52.3499 162.819 51.8299L163.319 51.9299C163.139 52.7399 162.499 53.0899 161.739 53.0899C160.319 53.0899 159.899 52.0799 159.899 50.9499ZM162.809 50.6199C162.829 49.7799 162.509 49.2799 161.749 49.2799C161.129 49.2799 160.519 49.6599 160.479 50.6199H162.809Z" fill="#191919"/>
<path d="M167.209 50.0601L166.679 50.1201C166.579 49.5801 166.429 49.2801 165.759 49.2801C165.049 49.2801 164.879 49.5901 164.879 49.9401C164.879 50.4201 165.239 50.5301 165.859 50.6801C166.609 50.8601 167.279 51.0201 167.279 51.9101C167.279 52.6101 166.749 53.0801 165.769 53.0801C164.869 53.0801 164.309 52.7401 164.189 51.8401L164.699 51.7501C164.809 52.2401 164.999 52.6101 165.789 52.6101C166.329 52.6101 166.729 52.4501 166.729 51.9301C166.729 51.4501 166.399 51.3501 165.799 51.2001C165.119 51.0201 164.319 50.9201 164.319 49.9901C164.319 49.2001 164.999 48.8101 165.769 48.8101C166.769 48.8201 167.119 49.3101 167.209 50.0601Z" fill="#191919"/>
</svg>
