<svg width="200" height="24" viewBox="0 0 200 24" fill="none" xmlns="http://www.w3.org/2000/svg">
<g clip-path="url(#clip0_79_9)">
<path d="M10.0825 12.8098C10.0825 15.3718 7.85123 16.6111 5.12394 16.6111C2.47988 16.6111 0 15.0411 0 12.0653H2.80938C2.80938 13.7185 3.80133 14.2966 5.20602 14.2966C6.36214 14.2966 7.27201 13.8838 7.27201 12.8086C7.27201 11.6525 6.03265 11.5693 3.38744 10.4964C1.65326 9.91718 0.412736 9.25125 0.412736 7.10664C0.412736 4.71 2.56197 3.47064 5.12394 3.47064C5.71617 3.42925 6.31073 3.50577 6.87318 3.69578C7.43563 3.88578 7.9548 4.18548 8.40061 4.57753C8.84642 4.96958 9.21002 5.44618 9.47036 5.97974C9.73069 6.51329 9.88257 7.09319 9.91722 7.68586H7.02691C7.05581 7.42168 7.02361 7.15439 6.93278 6.90463C6.84196 6.65488 6.69495 6.42934 6.50311 6.24542C6.31127 6.06151 6.07972 5.92416 5.82636 5.84396C5.57299 5.76376 5.30458 5.74286 5.04185 5.78288C4.0499 5.78288 3.22327 6.27886 3.22327 7.10549C3.22327 8.17952 4.37939 8.34485 6.69164 9.17148C8.42582 9.91486 10.0802 10.4941 10.0802 12.8075" fill="white"/>
<path d="M21.3228 6.9413L18.0174 16.2805H16.1168L11.2402 3.80127H14.3803L17.1076 11.7346L19.9181 3.80127H22.8084L25.6178 11.7346L28.3509 3.80127H31.4909L26.6167 16.2805H24.6281L21.3228 6.9413Z" fill="white"/>
<path d="M34.0487 3.80127H36.939V16.2805H34.0487V3.80127ZM35.4533 18.8424C35.7361 18.8404 36.0165 18.8947 36.2782 19.002C36.5398 19.1093 36.7776 19.2675 36.9775 19.4675C37.1775 19.6674 37.3357 19.9052 37.443 20.1668C37.5503 20.4285 37.6046 20.7089 37.6026 20.9917C37.6092 21.278 37.5586 21.5628 37.4536 21.8293C37.3486 22.0958 37.1914 22.3386 36.9912 22.5435C36.791 22.7484 36.5519 22.9112 36.2879 23.0223C36.0239 23.1335 35.7404 23.1907 35.4539 23.1907C35.1675 23.1907 34.8839 23.1335 34.6199 23.0223C34.356 22.9112 34.1168 22.7484 33.9167 22.5435C33.7165 22.3386 33.5593 22.0958 33.4543 21.8293C33.3493 21.5628 33.2986 21.278 33.3053 20.9917C33.3033 20.7089 33.3575 20.4285 33.4648 20.1668C33.5721 19.9052 33.7303 19.6674 33.9303 19.4675C34.1303 19.2675 34.368 19.1093 34.6297 19.002C34.8913 18.8947 35.1705 18.8404 35.4533 18.8424Z" fill="white"/>
<path d="M50.2466 12.8099C50.2466 15.3718 48.0153 16.6112 45.288 16.6112C42.5607 16.6112 40.1641 15.0412 40.1641 12.0665H42.9734C42.9734 13.7197 43.9654 14.2978 45.3701 14.2978C46.5262 14.2978 47.4361 13.8851 47.4361 12.8099C47.4361 11.6537 46.1967 11.5705 43.5515 10.4976C41.8173 9.83631 40.5768 9.17501 40.5768 7.02925C40.5768 4.63261 42.726 3.39324 45.288 3.39324C45.8802 3.35186 46.4748 3.42838 47.0372 3.61838C47.5997 3.80839 48.1189 4.10809 48.5647 4.50014C49.0105 4.89219 49.3741 5.36879 49.6344 5.90235C49.8947 6.4359 50.0466 7.0158 50.0813 7.60847H47.2719C47.3015 7.34404 47.2699 7.07633 47.1795 6.82608C47.0891 6.57583 46.9423 6.34974 46.7505 6.16531C46.5587 5.98089 46.327 5.84307 46.0734 5.76253C45.8198 5.68199 45.5511 5.66089 45.288 5.70086C44.296 5.70086 43.4694 6.19684 43.4694 7.10555C43.4694 8.17959 44.6255 8.34492 46.9378 9.17154C48.591 9.91493 50.2431 10.4941 50.2431 12.8076" fill="white"/>
<path d="M62.5611 12.8099C62.5611 15.3718 60.3297 16.6112 57.6025 16.6112C54.8752 16.6112 52.4785 15.0412 52.4785 12.0653H55.2879C55.2879 13.7186 56.2798 14.2966 57.6845 14.2966C58.8407 14.2966 59.7505 13.8839 59.7505 12.8087C59.7505 11.6526 58.5112 11.5693 55.866 10.4965C54.1318 9.9184 52.8912 9.25709 52.8912 7.10786C52.8912 4.71122 55.0405 3.47186 57.6025 3.47186C58.1947 3.43047 58.7892 3.50699 59.3517 3.697C59.9141 3.887 60.4333 4.1867 60.8791 4.57875C61.3249 4.9708 61.6885 5.4474 61.9489 5.98096C62.2092 6.51451 62.3611 7.09441 62.3957 7.68708H59.5054C59.5345 7.42281 59.5025 7.15539 59.4117 6.90548C59.321 6.65558 59.174 6.42988 58.9821 6.24583C58.7903 6.06179 58.5587 5.92432 58.3052 5.84406C58.0517 5.7638 57.7832 5.74289 57.5204 5.78295C56.5284 5.78295 55.7018 6.27892 55.7018 7.18763C55.7018 8.26167 56.8579 8.427 59.1702 9.25363C60.9043 9.91493 62.5588 10.493 62.5588 12.8075" fill="white"/>
<path d="M77.0237 3.80127V16.2805H74.1334V14.5463C73.7079 15.2235 73.1071 15.7731 72.3948 16.1368C71.6825 16.5005 70.885 16.6648 70.0869 16.6123C69.3671 16.6625 68.6457 16.5385 67.984 16.2507C67.3223 15.9629 66.7397 15.5198 66.2856 14.959C65.6465 13.829 65.3587 12.5341 65.459 11.2398V3.80127H68.3493V10.2478C68.3493 12.397 68.9273 14.0491 71.0766 14.0491C73.1426 14.0491 74.0513 12.3959 74.0513 10.2478V3.80127H77.0237Z" fill="white"/>
<path d="M80.9082 3.80124H83.7985V5.53543C84.2242 4.8584 84.8249 4.30906 85.5373 3.94556C86.2496 3.58207 87.047 3.41796 87.8449 3.47059C88.554 3.4101 89.2668 3.52996 89.9171 3.81902C90.5674 4.10809 91.134 4.55695 91.5642 5.12385C92.2033 6.25386 92.4911 7.54874 92.3908 8.84309V16.2804H89.5005V9.82927C89.5005 7.68003 88.9224 6.02794 86.7732 6.02794C84.7072 6.02794 83.7985 7.68119 83.7985 9.82927V16.2804H80.9082V3.80124Z" fill="white"/>
<path d="M96.1151 3.80127H99.0054V16.2805H96.1151V3.80127ZM97.5198 18.8424C97.8025 18.8404 98.0829 18.8947 98.3446 19.002C98.6062 19.1093 98.844 19.2675 99.0439 19.4675C99.2439 19.6674 99.4021 19.9052 99.5094 20.1668C99.6167 20.4285 99.671 20.7089 99.669 20.9917C99.6756 21.278 99.625 21.5628 99.52 21.8293C99.415 22.0958 99.2578 22.3386 99.0576 22.5435C98.8574 22.7484 98.6183 22.9112 98.3543 23.0223C98.0903 23.1335 97.8068 23.1907 97.5203 23.1907C97.2339 23.1907 96.9503 23.1335 96.6864 23.0223C96.4224 22.9112 96.1832 22.7484 95.9831 22.5435C95.7829 22.3386 95.6257 22.0958 95.5207 21.8293C95.4157 21.5628 95.365 21.278 95.3717 20.9917C95.3697 20.7089 95.4239 20.4285 95.5312 20.1668C95.6385 19.9052 95.7967 19.6674 95.9967 19.4675C96.1967 19.2675 96.4344 19.1093 96.6961 19.002C96.9577 18.8947 97.237 18.8404 97.5198 18.8424Z" fill="white"/>
<path d="M104.544 3.80127L107.933 12.0652L111.487 3.80127H114.627L108.925 16.2805H106.941L101.404 3.80127H104.544Z" fill="white"/>
<path d="M118.016 8.75997H124.132C124.141 8.36694 124.066 7.97648 123.912 7.6147C123.758 7.25293 123.529 6.92819 123.24 6.66222C122.95 6.39625 122.607 6.19517 122.234 6.07244C121.86 5.94972 121.465 5.90817 121.074 5.95059C120.681 5.89978 120.283 5.93543 119.906 6.05506C119.528 6.17469 119.182 6.37539 118.891 6.64308C118.599 6.91077 118.37 7.23897 118.219 7.60467C118.068 7.97036 117.998 8.36468 118.016 8.75997ZM118.016 10.9092C117.969 11.3511 118.023 11.798 118.174 12.216C118.325 12.634 118.568 13.0124 118.887 13.3227C119.205 13.633 119.589 13.867 120.011 14.0073C120.433 14.1476 120.881 14.1904 121.321 14.1325C121.886 14.2094 122.46 14.0862 122.943 13.7842C123.426 13.4822 123.788 13.0205 123.966 12.4792H126.941C126.528 14.6285 124.545 16.5256 121.321 16.5256C117.106 16.5256 115.04 13.3856 115.04 9.91378C115.041 6.19569 117.273 3.30538 121.239 3.30538C121.989 3.29005 122.734 3.42377 123.432 3.69877C124.13 3.97377 124.766 4.38458 125.304 4.90738C125.842 5.43017 126.27 6.05454 126.565 6.74426C126.859 7.43398 127.014 8.17533 127.02 8.9253C127.03 9.53567 126.975 10.1454 126.854 10.7439H118.011L118.016 10.9092Z" fill="white"/>
<path d="M138.181 6.52632C137.802 6.43093 137.415 6.37551 137.025 6.36099C134.545 6.36099 133.14 7.76568 133.14 10.9069V16.2782H130.25V3.80134H133.14V5.78524C133.551 5.12557 134.123 4.58182 134.803 4.20565C135.483 3.82948 136.248 3.6334 137.025 3.63601C137.416 3.63838 137.805 3.694 138.181 3.80134V6.52632Z" fill="white"/>
<path d="M149.42 12.8098C149.42 15.3718 147.189 16.6111 144.462 16.6111C141.818 16.6111 139.338 15.0411 139.338 12.0653H142.147C142.147 13.7185 143.139 14.2966 144.544 14.2966C145.7 14.2966 146.61 13.8838 146.61 12.8086C146.61 11.6525 145.371 11.5693 142.725 10.4964C140.991 9.83509 139.751 9.17379 139.751 7.02803C139.751 4.63139 141.9 3.39202 144.462 3.39202C145.054 3.35064 145.649 3.42716 146.211 3.61716C146.774 3.80717 147.293 4.10687 147.738 4.49892C148.184 4.89097 148.548 5.36757 148.808 5.90112C149.069 6.43468 149.22 7.01458 149.255 7.60725H146.446C146.475 7.34291 146.443 7.07534 146.353 6.82523C146.262 6.57513 146.116 6.3492 145.924 6.1649C145.732 5.98061 145.5 5.8429 145.247 5.76243C144.993 5.68195 144.725 5.66087 144.462 5.7008C143.47 5.7008 142.643 6.19678 142.643 7.10549C142.643 8.17953 143.799 8.34485 146.112 9.17148C147.765 9.91487 149.417 10.4941 149.417 12.8075" fill="white"/>
<path d="M152.48 3.80127H155.37V16.2805H152.48V3.80127ZM153.968 18.8424C154.25 18.8404 154.531 18.8947 154.792 19.002C155.054 19.1093 155.292 19.2675 155.492 19.4675C155.692 19.6674 155.85 19.9052 155.957 20.1668C156.065 20.4285 156.119 20.7089 156.117 20.9917C156.104 21.5529 155.872 22.0867 155.47 22.4791C155.069 22.8714 154.53 23.091 153.968 23.091C153.407 23.091 152.868 22.8714 152.466 22.4791C152.065 22.0867 151.833 21.5529 151.82 20.9917C151.81 20.7069 151.859 20.4231 151.964 20.1581C152.068 19.893 152.226 19.6523 152.428 19.4508C152.629 19.2493 152.87 19.0913 153.135 18.9867C153.4 18.882 153.683 18.8329 153.968 18.8424Z" fill="white"/>
<path d="M166.446 16.2805C165.735 16.39 165.016 16.4452 164.297 16.4458C162.892 16.4458 160.25 16.2805 160.25 12.0653V6.28468H158.099V3.80133H160.248V0H163.138V3.80133H166.028V6.28122H163.138V11.4052C163.138 13.5544 163.799 13.885 164.957 13.885C165.453 13.885 166.113 13.803 166.445 13.803L166.446 16.2805Z" fill="white"/>
<path d="M169.669 3.80127H172.559V16.2805H169.669V3.80127ZM171.073 18.8424C171.356 18.8404 171.637 18.8947 171.898 19.002C172.16 19.1093 172.398 19.2675 172.598 19.4675C172.798 19.6674 172.956 19.9052 173.063 20.1668C173.17 20.4285 173.225 20.7089 173.223 20.9917C173.229 21.278 173.179 21.5628 173.074 21.8293C172.969 22.0958 172.811 22.3386 172.611 22.5435C172.411 22.7484 172.172 22.9112 171.908 23.0223C171.644 23.1335 171.36 23.1907 171.074 23.1907C170.788 23.1907 170.504 23.1335 170.24 23.0223C169.976 22.9112 169.737 22.7484 169.537 22.5435C169.337 22.3386 169.179 22.0958 169.074 21.8293C168.969 21.5628 168.919 21.278 168.925 20.9917C168.923 20.7089 168.978 20.4285 169.085 20.1668C169.192 19.9052 169.35 19.6674 169.55 19.4675C169.75 19.2675 169.988 19.1093 170.25 19.002C170.511 18.8947 170.792 18.8404 171.075 18.8424" fill="white"/>
<path d="M178.761 8.75997H184.877C184.886 8.36694 184.812 7.97648 184.658 7.6147C184.504 7.25293 184.274 6.92819 183.985 6.66222C183.695 6.39625 183.352 6.19517 182.979 6.07244C182.605 5.94972 182.21 5.90817 181.819 5.95059C181.426 5.89296 181.024 5.92382 180.644 6.04093C180.264 6.15804 179.915 6.35844 179.622 6.62756C179.329 6.89667 179.099 7.22772 178.951 7.59661C178.802 7.96549 178.737 8.36292 178.761 8.75997ZM178.679 10.9092C178.632 11.3511 178.686 11.798 178.837 12.216C178.988 12.634 179.232 13.0124 179.55 13.3227C179.868 13.633 180.252 13.867 180.674 14.0073C181.096 14.1476 181.544 14.1904 181.985 14.1325C182.549 14.2091 183.122 14.0858 183.605 13.7838C184.088 13.4818 184.45 13.0202 184.629 12.4792H187.603C187.191 14.6285 185.207 16.5256 181.983 16.5256C177.768 16.5256 175.702 13.3856 175.702 9.91378C175.703 6.19569 177.935 3.30538 181.901 3.30538C182.651 3.29005 183.397 3.42377 184.094 3.69877C184.792 3.97377 185.428 4.38458 185.966 4.90738C186.504 5.43017 186.932 6.05454 187.227 6.74426C187.521 7.43398 187.676 8.17533 187.682 8.9253C187.692 9.53567 187.637 10.1454 187.517 10.7439H178.673L178.679 10.9092Z" fill="white"/>
<path d="M200.001 12.8098C200.001 15.3718 197.769 16.6111 195.042 16.6111C192.397 16.6111 189.918 15.0411 189.918 12.0653H192.727C192.727 13.7185 193.719 14.2966 195.124 14.2966C196.28 14.2966 197.19 13.8838 197.19 12.8086C197.19 11.6525 195.951 11.5693 193.305 10.4964C191.571 9.83509 190.331 9.17379 190.331 7.02803C190.331 4.63139 192.48 3.39202 195.042 3.39202C195.634 3.35064 196.229 3.42716 196.791 3.61716C197.354 3.80717 197.873 4.10687 198.319 4.49892C198.764 4.89097 199.128 5.36757 199.388 5.90112C199.649 6.43468 199.801 7.01458 199.835 7.60725H197.026C197.055 7.34291 197.023 7.07534 196.933 6.82523C196.842 6.57513 196.696 6.3492 196.504 6.1649C196.312 5.98061 196.08 5.8429 195.827 5.76243C195.573 5.68195 195.305 5.66087 195.042 5.7008C194.05 5.7008 193.223 6.19678 193.223 7.10549C193.223 8.17953 194.379 8.34485 196.692 9.17148C198.345 9.91487 199.997 10.4941 199.997 12.8075" fill="white"/>
</g>
<defs>
<clipPath id="clip0_79_9">
<rect width="200" height="23.141" fill="white"/>
</clipPath>
</defs>
</svg>
