<svg width="170" height="31" viewBox="0 0 170 31" fill="none" xmlns="http://www.w3.org/2000/svg">
<path d="M138.071 22.0251V14.8251C138.071 14.4411 138.167 14.0945 138.359 13.7851C138.551 13.4758 138.802 13.2251 139.111 13.0331C139.431 12.8411 139.778 12.7451 140.151 12.7451H145.335V14.4731H140.199C140.093 14.4731 139.997 14.5158 139.911 14.6011C139.837 14.6758 139.799 14.7665 139.799 14.8731V22.0251H138.071ZM148.433 22.0251C148.049 22.0251 147.697 21.9291 147.377 21.7371C147.068 21.5451 146.817 21.2945 146.625 20.9851C146.444 20.6758 146.353 20.3291 146.353 19.9451V9.81715H148.081V12.7451H151.889V14.4731H148.081V19.8971C148.081 20.0038 148.118 20.0998 148.193 20.1851C148.278 20.2598 148.374 20.2971 148.481 20.2971H151.889V22.0251H148.433ZM155.386 22.0251C155.002 22.0251 154.65 21.9291 154.33 21.7371C154.02 21.5451 153.77 21.2945 153.578 20.9851C153.396 20.6758 153.306 20.3291 153.306 19.9451V16.5211H161.002V14.8731C161.002 14.7665 160.964 14.6758 160.89 14.6011C160.815 14.5158 160.724 14.4731 160.618 14.4731H153.306V12.7451H160.666C161.05 12.7451 161.396 12.8411 161.706 13.0331C162.026 13.2145 162.276 13.4651 162.458 13.7851C162.65 14.1051 162.746 14.4518 162.746 14.8251V22.0251H155.386ZM155.434 20.2971H161.002V18.1371H155.034V19.8971C155.034 20.0038 155.071 20.0998 155.146 20.1851C155.231 20.2598 155.327 20.2971 155.434 20.2971ZM166.245 22.0251C165.861 22.0251 165.514 21.9291 165.205 21.7371C164.896 21.5451 164.645 21.2945 164.453 20.9851C164.261 20.6758 164.165 20.3291 164.165 19.9451V9.70515H165.893V19.8971C165.893 20.0038 165.93 20.0998 166.005 20.1851C166.09 20.2598 166.186 20.2971 166.293 20.2971H167.973V22.0251H166.245Z" fill="white"/>
<path d="M128.974 8.70011C129.114 8.69957 129.254 8.69904 129.398 8.69849C129.506 8.69979 129.506 8.69979 129.616 8.70112C129.837 8.70334 130.057 8.70114 130.277 8.69849C130.417 8.69902 130.557 8.69956 130.701 8.70011C130.828 8.70058 130.955 8.70104 131.087 8.70153C131.497 8.76557 131.672 8.88313 131.962 9.17012C132.096 9.52101 132.096 9.52101 132.188 9.90917C132.295 10.4679 132.295 10.4679 132.706 10.8297C133.044 10.8033 133.361 10.75 133.688 10.6612C134.088 10.5559 134.337 10.5015 134.744 10.6028C135.172 10.9275 135.406 11.3121 135.68 11.7633C135.747 11.8676 135.814 11.9719 135.882 12.0793C136.479 13.0348 136.479 13.0348 136.53 13.6304C136.358 14.2489 136.063 14.5167 135.536 14.8885C135.334 15.0792 135.334 15.0792 135.307 15.3905C135.377 15.7904 135.498 15.8743 135.827 16.1133C136.162 16.3839 136.31 16.5178 136.497 16.9107C136.565 17.6259 136.151 18.2226 135.807 18.8297C135.761 18.9124 135.716 18.9952 135.669 19.0805C135.357 19.6338 135.071 20.0498 134.432 20.2624C134.094 20.2687 133.92 20.2239 133.609 20.1133C133.196 19.9679 132.915 19.8849 132.493 20.0614C132.308 20.3834 132.207 20.6804 132.1 21.0322C132.061 21.155 132.061 21.155 132.022 21.2802C132 21.3567 131.978 21.4332 131.956 21.512C131.824 21.7883 131.7 21.8764 131.431 22.0322C130.977 22.0895 130.524 22.0813 130.066 22.0785C129.845 22.0776 129.624 22.0806 129.403 22.0839C129.192 22.0838 129.192 22.0838 128.978 22.0837C128.786 22.084 128.786 22.084 128.59 22.0843C128.177 22.0222 128.004 21.9057 127.713 21.6173C127.579 21.2664 127.579 21.2664 127.487 20.8783C127.38 20.3196 127.38 20.3196 126.969 19.9577C126.631 19.9841 126.314 20.0375 125.987 20.1263C125.587 20.2315 125.338 20.2859 124.931 20.1846C124.503 19.8599 124.269 19.4754 123.994 19.0242C123.928 18.9199 123.861 18.8156 123.793 18.7081C123.196 17.7526 123.196 17.7526 123.145 17.1571C123.317 16.5385 123.611 16.2708 124.138 15.899C124.341 15.7082 124.341 15.7082 124.367 15.3966C124.298 14.997 124.178 14.917 123.848 14.6806C123.524 14.4183 123.293 14.2311 123.171 13.8313C123.122 13.0726 123.604 12.4268 123.988 11.7892C124.033 11.711 124.079 11.6328 124.126 11.5522C124.424 11.0547 124.654 10.7164 125.236 10.5315C125.582 10.5188 125.748 10.5605 126.066 10.6742C126.479 10.8195 126.76 10.9026 127.182 10.726C127.406 10.3422 127.503 9.99495 127.593 9.56558C127.811 8.84474 128.243 8.70279 128.974 8.70011ZM128.775 9.79248C128.733 9.98502 128.692 10.1776 128.649 10.3759C128.501 10.9456 128.376 11.2695 127.925 11.6596C127.058 12.1387 126.29 11.989 125.375 11.7633C125.216 12.0353 125.056 12.3076 124.897 12.5801C124.852 12.6576 124.806 12.735 124.759 12.8147C124.716 12.8889 124.673 12.9632 124.629 13.0396C124.568 13.1423 124.568 13.1423 124.507 13.247C124.404 13.4214 124.404 13.4214 124.419 13.6304C124.552 13.7499 124.69 13.8636 124.831 13.974C125.26 14.3354 125.452 14.5532 125.504 15.1158C125.526 15.667 125.497 16.0713 125.163 16.5347C124.926 16.7575 124.679 16.961 124.419 17.1571C124.563 17.6278 124.758 18.02 125.017 18.4407C125.084 18.5506 125.151 18.6605 125.22 18.7738C125.272 18.8564 125.323 18.939 125.375 19.0242C125.464 19.0017 125.464 19.0017 125.555 18.9788C126.385 18.7816 127.072 18.6798 127.845 19.1096C128.541 19.5649 128.605 20.2379 128.775 20.995C129.476 20.995 130.177 20.995 130.9 20.995C130.941 20.8024 130.983 20.6099 131.026 20.4115C131.174 19.8419 131.299 19.518 131.75 19.1279C132.617 18.6487 133.385 18.7984 134.299 19.0242C134.459 18.7522 134.619 18.4799 134.777 18.2073C134.823 18.1299 134.869 18.0525 134.916 17.9727C134.959 17.8985 135.002 17.8243 135.046 17.7478C135.086 17.6794 135.126 17.6109 135.168 17.5404C135.271 17.3661 135.271 17.3661 135.255 17.1571C135.123 17.0375 134.985 16.9238 134.844 16.8135C134.414 16.452 134.223 16.2343 134.171 15.6717C134.148 15.1204 134.177 14.7162 134.512 14.2527C134.748 14.03 134.996 13.8265 135.255 13.6304C135.112 13.1596 134.916 12.7674 134.658 12.3467C134.591 12.2368 134.524 12.1269 134.455 12.0137C134.403 11.9311 134.352 11.8484 134.299 11.7633C134.24 11.7783 134.181 11.7932 134.12 11.8087C133.29 12.0058 132.603 12.1076 131.83 11.6778C131.134 11.2225 131.07 10.5495 130.9 9.79248C130.199 9.79248 129.497 9.79248 128.775 9.79248Z" fill="white"/>
<path d="M131.431 13.2156C132.16 13.8636 132.488 14.4052 132.54 15.3679C132.525 16.1129 132.296 16.6872 131.787 17.2451C131.116 17.847 130.43 18.0557 129.525 18.0292C128.675 17.919 128.06 17.4898 127.536 16.8416C127.096 16.2134 127.106 15.5091 127.181 14.7715C127.372 13.9713 127.895 13.4782 128.562 13.0081C129.421 12.5609 130.641 12.6788 131.431 13.2156ZM128.523 14.6418C128.311 15.0554 128.259 15.3554 128.35 15.8088C128.605 16.3063 128.903 16.5973 129.412 16.846C129.877 16.9349 130.184 16.8843 130.608 16.6775C130.976 16.3669 131.269 16.088 131.365 15.6062C131.396 15.0775 131.26 14.7638 130.9 14.3566C130.483 14.0049 130.161 13.8717 129.62 13.902C129.126 13.9964 128.841 14.2822 128.523 14.6418Z" fill="white"/>
<path d="M47.9523 21.9187V12.1267H43.0563V10.3987H54.5763V12.1267H49.6803V21.9187H47.9523ZM57.773 21.9187C57.389 21.9187 57.0423 21.8227 56.733 21.6307C56.4236 21.4387 56.173 21.188 55.981 20.8787C55.789 20.5694 55.693 20.2227 55.693 19.8387V14.7187C55.693 14.3347 55.789 13.988 55.981 13.6787C56.173 13.3694 56.4236 13.1187 56.733 12.9267C57.0423 12.7347 57.389 12.6387 57.773 12.6387H63.053C63.437 12.6387 63.7836 12.7347 64.093 12.9267C64.413 13.108 64.6636 13.3587 64.845 13.6787C65.037 13.9987 65.133 14.3454 65.133 14.7187V18.1427H57.421V19.7907C57.421 19.8974 57.4583 19.9934 57.533 20.0787C57.6183 20.1534 57.7143 20.1907 57.821 20.1907H65.133V21.9187H57.773ZM57.421 16.5267H63.389V14.7667C63.389 14.66 63.3516 14.5694 63.277 14.4947C63.2023 14.4094 63.1116 14.3667 63.005 14.3667H57.821C57.7143 14.3667 57.6183 14.4094 57.533 14.4947C57.4583 14.5694 57.421 14.66 57.421 14.7667V16.5267ZM68.5073 21.9187C68.1233 21.9187 67.7767 21.8227 67.4673 21.6307C67.158 21.4387 66.9073 21.188 66.7153 20.8787C66.5233 20.5694 66.4273 20.2227 66.4273 19.8387V14.7187C66.4273 14.3347 66.5233 13.988 66.7153 13.6787C66.9073 13.3694 67.158 13.1187 67.4673 12.9267C67.7767 12.7347 68.1233 12.6387 68.5073 12.6387H75.8353V14.3667H68.5553C68.4487 14.3667 68.3527 14.4094 68.2673 14.4947C68.1927 14.5694 68.1553 14.66 68.1553 14.7667V19.7907C68.1553 19.8974 68.1927 19.9934 68.2673 20.0787C68.3527 20.1534 68.4487 20.1907 68.5553 20.1907H75.8673V21.9187H68.5073ZM77.2878 21.9187V9.5987H79.0158V12.6387H84.6478C85.0212 12.6387 85.3625 12.7347 85.6718 12.9267C85.9918 13.1187 86.2478 13.3694 86.4398 13.6787C86.6318 13.988 86.7278 14.3347 86.7278 14.7187V21.9187H84.9998V14.7667C84.9998 14.66 84.9572 14.5694 84.8718 14.4947C84.7972 14.4094 84.7065 14.3667 84.5998 14.3667H79.4158C79.3092 14.3667 79.2132 14.4094 79.1278 14.4947C79.0532 14.5694 79.0158 14.66 79.0158 14.7667V21.9187H77.2878ZM87.9753 21.9187V12.6387H95.3353C95.7193 12.6387 96.066 12.7347 96.3753 12.9267C96.6953 13.1187 96.946 13.3694 97.1273 13.6787C97.3193 13.988 97.4153 14.3347 97.4153 14.7187V21.9187H95.6873V14.7667C95.6873 14.66 95.6447 14.5694 95.5593 14.4947C95.4847 14.4094 95.394 14.3667 95.2873 14.3667H90.1033C89.9967 14.3667 89.9007 14.4094 89.8153 14.4947C89.7407 14.5694 89.7033 14.66 89.7033 14.7667V21.9187H87.9753ZM100.851 21.9187C100.467 21.9187 100.12 21.8227 99.8111 21.6307C99.5017 21.4387 99.2511 21.188 99.0591 20.8787C98.8671 20.5694 98.7711 20.2227 98.7711 19.8387V14.7187C98.7711 14.3347 98.8671 13.988 99.0591 13.6787C99.2511 13.3694 99.5017 13.1187 99.8111 12.9267C100.12 12.7347 100.467 12.6387 100.851 12.6387H106.131C106.515 12.6387 106.862 12.7347 107.171 12.9267C107.491 13.108 107.742 13.3587 107.923 13.6787C108.115 13.9987 108.211 14.3454 108.211 14.7187V19.8387C108.211 20.2227 108.115 20.5694 107.923 20.8787C107.742 21.188 107.491 21.4387 107.171 21.6307C106.862 21.8227 106.515 21.9187 106.131 21.9187H100.851ZM100.899 20.1907H106.083C106.19 20.1907 106.28 20.1534 106.355 20.0787C106.43 19.9934 106.467 19.8974 106.467 19.7907V14.7667C106.467 14.66 106.43 14.5694 106.355 14.4947C106.28 14.4094 106.19 14.3667 106.083 14.3667H100.899C100.792 14.3667 100.696 14.4094 100.611 14.4947C100.536 14.5694 100.499 14.66 100.499 14.7667V19.7907C100.499 19.8974 100.536 19.9934 100.611 20.0787C100.696 20.1534 100.792 20.1907 100.899 20.1907ZM109.929 21.9187V10.4147H119.353C119.737 10.4147 120.089 10.5107 120.409 10.7027C120.729 10.8947 120.98 11.1507 121.161 11.4707C121.353 11.78 121.449 12.1214 121.449 12.4947V15.7267C121.449 16.1107 121.353 16.4627 121.161 16.7827C120.98 17.092 120.729 17.3427 120.409 17.5347C120.089 17.716 119.737 17.8067 119.353 17.8067L111.657 17.8227V21.9187H109.929ZM112.057 16.0627H119.321C119.428 16.0627 119.519 16.0254 119.593 15.9507C119.668 15.876 119.705 15.7854 119.705 15.6787V12.5427C119.705 12.436 119.668 12.3454 119.593 12.2707C119.519 12.1854 119.428 12.1427 119.321 12.1427H112.057C111.951 12.1427 111.855 12.1854 111.769 12.2707C111.695 12.3454 111.657 12.436 111.657 12.5427V15.6787C111.657 15.7854 111.695 15.876 111.769 15.9507C111.855 16.0254 111.951 16.0627 112.057 16.0627Z" fill="white"/>
<path d="M39.1793 7.63073C37.8998 4.79214 35.8182 2.7412 32.9731 1.53153C29.1125 -0.118019 25.0919 -0.322837 20.9987 0.385093C16.6919 1.13014 12.808 2.87729 9.27451 5.43684C8.56973 5.94819 7.88683 6.4898 7.19436 7.01216C7.16015 6.97229 7.12731 6.93243 7.09309 6.89393L11.226 3.01475L11.1234 2.77693C10.7511 2.87317 10.3159 2.87591 10.0162 3.07936C6.75917 5.30349 4.0892 8.08299 2.16642 11.5608C0.777383 14.0653 -0.0669924 16.7033 0.00417055 19.6023C0.0336486 21.7726 0.862473 23.8548 2.33065 25.4473C3.34198 26.5676 4.57365 27.3992 5.85869 28.1964C8.42466 29.7787 11.1959 30.5855 14.1725 30.7478C18.9841 31.0117 23.5208 29.9491 27.7755 27.7236C29.2467 26.9579 30.6551 26.0763 31.9878 25.087C33.6016 23.8704 35.0183 22.4102 36.1878 20.7584C37.9669 18.2937 39.5625 15.7767 39.8212 12.611C39.9649 10.8886 39.8964 9.22254 39.1793 7.63073ZM35.6951 11.9608C35.5273 13.6811 35.0374 15.354 34.2513 16.8916C32.0466 21.2284 28.468 23.9969 24.0476 25.6892C20.796 26.9374 17.4104 27.0926 14.0835 25.9641C11.9404 25.2355 10.1435 23.931 8.9228 21.9419C8.82084 21.7668 8.69509 21.6067 8.54919 21.4663C8.38589 21.3377 8.21242 21.2229 8.03052 21.1227C8.03052 21.3728 7.93199 21.6725 8.03052 21.8691C9.69191 25.1682 12.2415 27.347 15.8981 28.0947C16.7628 28.2765 17.6381 28.4023 18.5189 28.4714C19.4002 28.5361 20.2897 28.4866 21.2011 28.525C20.4417 28.6763 19.6848 28.9278 18.9199 28.9594C16.826 29.0446 14.739 29.0172 12.6944 28.3848C10.1093 27.5861 8.06338 26.1579 6.73865 23.7344C5.67394 21.7894 5.31402 19.7385 5.75194 17.5665C6.35288 14.5288 7.81853 11.7315 9.97109 9.51397C12.1394 7.23615 14.7193 5.39348 17.5732 4.08421C20.5018 2.73158 23.5947 2.24358 26.7505 2.84705C29.0564 3.29242 31.0833 4.37562 32.2246 6.61351C33.0457 8.21495 33.4233 9.88924 32.7898 11.6639C32.486 12.5107 32.1602 13.3491 31.8673 14.2001C31.8154 14.3513 31.8673 14.5395 31.881 14.7114C32.0507 14.7032 32.2355 14.7348 32.3847 14.6743C32.5516 14.608 32.6947 14.4925 32.7952 14.343C33.7148 12.831 34.5277 11.2625 34.5537 9.43149C34.5674 8.46925 34.4895 7.49052 34.4566 6.60801C35.435 8.21074 35.8695 10.0889 35.6951 11.9608Z" fill="white"/>
</svg>
