<svg width="254" height="46" viewBox="0 0 254 46" fill="none" xmlns="http://www.w3.org/2000/svg">
<path d="M206.3 33V22.2C206.3 21.624 206.444 21.104 206.732 20.64C207.02 20.176 207.396 19.8 207.86 19.512C208.34 19.224 208.86 19.08 209.42 19.08H217.196V21.672H209.492C209.332 21.672 209.188 21.736 209.06 21.864C208.948 21.976 208.892 22.112 208.892 22.272V33H206.3ZM221.842 33C221.266 33 220.738 32.856 220.258 32.568C219.794 32.28 219.418 31.904 219.13 31.44C218.858 30.976 218.722 30.456 218.722 29.88V14.688H221.314V19.08H227.026V21.672H221.314V29.808C221.314 29.968 221.37 30.112 221.482 30.24C221.61 30.352 221.754 30.408 221.914 30.408H227.026V33H221.842ZM232.271 33C231.695 33 231.167 32.856 230.687 32.568C230.223 32.28 229.847 31.904 229.559 31.44C229.287 30.976 229.151 30.456 229.151 29.88V24.744H240.695V22.272C240.695 22.112 240.639 21.976 240.527 21.864C240.415 21.736 240.279 21.672 240.119 21.672H229.151V19.08H240.191C240.767 19.08 241.287 19.224 241.751 19.512C242.231 19.784 242.607 20.16 242.879 20.64C243.167 21.12 243.311 21.64 243.311 22.2V33H232.271ZM232.343 30.408H240.695V27.168H231.743V29.808C231.743 29.968 231.799 30.112 231.911 30.24C232.039 30.352 232.183 30.408 232.343 30.408ZM248.56 33C247.984 33 247.464 32.856 247 32.568C246.536 32.28 246.16 31.904 245.872 31.44C245.584 30.976 245.44 30.456 245.44 29.88V14.52H248.032V29.808C248.032 29.968 248.088 30.112 248.2 30.24C248.328 30.352 248.472 30.408 248.632 30.408H251.152V33H248.56Z" fill="white"/>
<path d="M192.71 13.0024C192.919 13.0016 193.128 13.0008 193.343 13C193.505 13.0019 193.505 13.0019 193.67 13.0039C193.999 13.0073 194.328 13.004 194.657 13C194.866 13.0008 195.075 13.0016 195.29 13.0024C195.48 13.0031 195.67 13.0038 195.866 13.0045C196.48 13.1002 196.741 13.2759 197.175 13.7047C197.374 14.2289 197.374 14.2289 197.512 14.8089C197.672 15.6437 197.672 15.6437 198.286 16.1844C198.791 16.1449 199.265 16.0652 199.753 15.9325C200.35 15.7753 200.723 15.6939 201.331 15.8453C201.97 16.3305 202.32 16.905 202.73 17.5792C202.83 17.735 202.929 17.8908 203.031 18.0514C203.923 19.479 203.923 19.479 204 20.3688C203.742 21.293 203.302 21.6931 202.515 22.2486C202.213 22.5336 202.213 22.5336 202.173 22.9987C202.276 23.5962 202.458 23.7215 202.948 24.0787C203.449 24.483 203.67 24.683 203.95 25.2701C204.052 26.3387 203.433 27.2302 202.919 28.1372C202.851 28.2609 202.783 28.3846 202.714 28.512C202.247 29.3386 201.82 29.9602 200.865 30.2779C200.361 30.2874 200.1 30.2203 199.635 30.0551C199.017 29.8379 198.599 29.7139 197.968 29.9776C197.691 30.4587 197.541 30.9024 197.38 31.4281C197.323 31.6115 197.323 31.6115 197.264 31.7986C197.231 31.9129 197.199 32.0272 197.165 32.1449C196.968 32.5578 196.783 32.6895 196.381 32.9222C195.703 33.0078 195.026 32.9955 194.342 32.9914C194.011 32.9901 193.681 32.9945 193.351 32.9994C193.036 32.9993 193.036 32.9993 192.716 32.9991C192.429 32.9996 192.429 32.9996 192.136 33C191.519 32.9072 191.26 32.7333 190.825 32.3023C190.626 31.7781 190.626 31.7781 190.488 31.1981C190.328 30.3633 190.328 30.3633 189.714 29.8226C189.209 29.8621 188.735 29.9418 188.247 30.0745C187.65 30.2317 187.277 30.3131 186.669 30.1617C186.03 29.6765 185.68 29.102 185.27 28.4278C185.17 28.272 185.071 28.1162 184.969 27.9556C184.077 26.528 184.077 26.528 184 25.6382C184.258 24.714 184.698 24.3139 185.485 23.7584C185.788 23.4733 185.788 23.4733 185.827 23.0077C185.724 22.4107 185.544 22.2912 185.052 21.938C184.567 21.5461 184.222 21.2664 184.04 20.6691C183.966 19.5355 184.687 18.5705 185.26 17.6179C185.328 17.5011 185.396 17.3842 185.467 17.2638C185.912 16.5205 186.256 16.015 187.125 15.7388C187.642 15.7197 187.89 15.7821 188.365 15.9519C188.983 16.1691 189.401 16.2931 190.032 16.0294C190.367 15.4558 190.511 14.9371 190.647 14.2955C190.972 13.2185 191.618 13.0064 192.71 13.0024ZM192.413 14.6346C192.35 14.9222 192.288 15.2099 192.224 15.5063C192.003 16.3574 191.816 16.8413 191.143 17.4242C189.847 18.1402 188.7 17.9164 187.333 17.5792C187.094 17.9856 186.856 18.3924 186.619 18.7997C186.551 18.9153 186.483 19.031 186.413 19.1502C186.348 19.2611 186.284 19.3719 186.217 19.4862C186.127 19.6396 186.127 19.6396 186.036 19.7961C185.882 20.0566 185.882 20.0566 185.905 20.3688C186.103 20.5475 186.309 20.7174 186.52 20.8822C187.161 21.4223 187.448 21.7476 187.525 22.5882C187.559 23.4118 187.516 24.0158 187.016 24.7083C186.662 25.0411 186.293 25.3452 185.905 25.6382C186.119 26.3415 186.411 26.9275 186.798 27.556C186.898 27.7203 186.998 27.8845 187.101 28.0537C187.178 28.1771 187.254 28.3006 187.333 28.4278C187.466 28.3943 187.466 28.3943 187.601 28.36C188.841 28.0655 189.868 27.9133 191.023 28.5556C192.062 29.2358 192.158 30.2413 192.413 31.3724C193.46 31.3724 194.508 31.3724 195.587 31.3724C195.65 31.0848 195.712 30.7971 195.776 30.5007C195.997 29.6496 196.184 29.1657 196.857 28.5828C198.153 27.8668 199.3 28.0906 200.667 28.4278C200.906 28.0214 201.144 27.6146 201.381 27.2073C201.449 27.0917 201.517 26.976 201.587 26.8568C201.652 26.7459 201.716 26.6351 201.783 26.5208C201.843 26.4186 201.902 26.3163 201.964 26.2109C202.118 25.9504 202.118 25.9504 202.095 25.6382C201.897 25.4595 201.691 25.2896 201.48 25.1248C200.839 24.5847 200.552 24.2594 200.475 23.4188C200.441 22.5952 200.484 21.9912 200.984 21.2987C201.338 20.9659 201.707 20.6618 202.095 20.3688C201.881 19.6655 201.589 19.0795 201.202 18.451C201.102 18.2867 201.002 18.1225 200.899 17.9533C200.822 17.8299 200.746 17.7064 200.667 17.5792C200.578 17.6016 200.49 17.6239 200.399 17.647C199.159 17.9415 198.132 18.0937 196.977 17.4514C195.938 16.7712 195.842 15.7657 195.587 14.6346C194.54 14.6346 193.492 14.6346 192.413 14.6346Z" fill="white"/>
<path d="M196.381 19.7491C197.47 20.7173 197.961 21.5265 198.038 22.9649C198.015 24.0781 197.673 24.9361 196.913 25.7697C195.911 26.669 194.885 26.9807 193.534 26.9412C192.263 26.7766 191.344 26.1353 190.562 25.1668C189.904 24.2282 189.919 23.1758 190.032 22.0738C190.317 20.8783 191.098 20.1415 192.095 19.4391C193.378 18.771 195.2 18.9471 196.381 19.7491ZM192.036 21.8801C191.719 22.4981 191.642 22.9463 191.778 23.6236C192.158 24.367 192.604 24.8017 193.365 25.1734C194.059 25.3062 194.518 25.2306 195.151 24.9216C195.701 24.4575 196.138 24.0408 196.283 23.3209C196.329 22.531 196.125 22.0624 195.587 21.4539C194.964 20.9284 194.484 20.7294 193.675 20.7746C192.938 20.9157 192.511 21.3428 192.036 21.8801Z" fill="white"/>
<path d="M71.6697 32.8462V18.1582H64.3257V15.5662H81.6057V18.1582H74.2617V32.8462H71.6697ZM86.4006 32.8462C85.8246 32.8462 85.3046 32.7022 84.8406 32.4142C84.3766 32.1262 84.0006 31.7502 83.7126 31.2862C83.4246 30.8222 83.2806 30.3022 83.2806 29.7262V22.0462C83.2806 21.4702 83.4246 20.9502 83.7126 20.4862C84.0006 20.0222 84.3766 19.6462 84.8406 19.3582C85.3046 19.0702 85.8246 18.9262 86.4006 18.9262H94.3206C94.8966 18.9262 95.4166 19.0702 95.8806 19.3582C96.3606 19.6302 96.7366 20.0062 97.0086 20.4862C97.2966 20.9662 97.4406 21.4862 97.4406 22.0462V27.1822H85.8726V29.6542C85.8726 29.8142 85.9286 29.9582 86.0406 30.0862C86.1686 30.1982 86.3126 30.2542 86.4726 30.2542H97.4406V32.8462H86.4006ZM85.8726 24.7582H94.8246V22.1182C94.8246 21.9582 94.7686 21.8222 94.6566 21.7102C94.5446 21.5822 94.4086 21.5182 94.2486 21.5182H86.4726C86.3126 21.5182 86.1686 21.5822 86.0406 21.7102C85.9286 21.8222 85.8726 21.9582 85.8726 22.1182V24.7582ZM102.502 32.8462C101.926 32.8462 101.406 32.7022 100.942 32.4142C100.478 32.1262 100.102 31.7502 99.8142 31.2862C99.5262 30.8222 99.3822 30.3022 99.3822 29.7262V22.0462C99.3822 21.4702 99.5262 20.9502 99.8142 20.4862C100.102 20.0222 100.478 19.6462 100.942 19.3582C101.406 19.0702 101.926 18.9262 102.502 18.9262H113.494V21.5182H102.574C102.414 21.5182 102.27 21.5822 102.142 21.7102C102.03 21.8222 101.974 21.9582 101.974 22.1182V29.6542C101.974 29.8142 102.03 29.9582 102.142 30.0862C102.27 30.1982 102.414 30.2542 102.574 30.2542H113.542V32.8462H102.502ZM115.673 32.8462V14.3662H118.265V18.9262H126.713C127.273 18.9262 127.785 19.0702 128.249 19.3582C128.729 19.6462 129.113 20.0222 129.401 20.4862C129.689 20.9502 129.833 21.4702 129.833 22.0462V32.8462H127.241V22.1182C127.241 21.9582 127.177 21.8222 127.049 21.7102C126.937 21.5822 126.801 21.5182 126.641 21.5182H118.865C118.705 21.5182 118.561 21.5822 118.433 21.7102C118.321 21.8222 118.265 21.9582 118.265 22.1182V32.8462H115.673ZM131.704 32.8462V18.9262H142.744C143.32 18.9262 143.84 19.0702 144.304 19.3582C144.784 19.6462 145.16 20.0222 145.432 20.4862C145.72 20.9502 145.864 21.4702 145.864 22.0462V32.8462H143.272V22.1182C143.272 21.9582 143.208 21.8222 143.08 21.7102C142.968 21.5822 142.832 21.5182 142.672 21.5182H134.896C134.736 21.5182 134.592 21.5822 134.464 21.7102C134.352 21.8222 134.296 21.9582 134.296 22.1182V32.8462H131.704ZM151.018 32.8462C150.442 32.8462 149.922 32.7022 149.458 32.4142C148.994 32.1262 148.618 31.7502 148.33 31.2862C148.042 30.8222 147.898 30.3022 147.898 29.7262V22.0462C147.898 21.4702 148.042 20.9502 148.33 20.4862C148.618 20.0222 148.994 19.6462 149.458 19.3582C149.922 19.0702 150.442 18.9262 151.018 18.9262H158.938C159.514 18.9262 160.034 19.0702 160.498 19.3582C160.978 19.6302 161.354 20.0062 161.626 20.4862C161.914 20.9662 162.058 21.4862 162.058 22.0462V29.7262C162.058 30.3022 161.914 30.8222 161.626 31.2862C161.354 31.7502 160.978 32.1262 160.498 32.4142C160.034 32.7022 159.514 32.8462 158.938 32.8462H151.018ZM151.09 30.2542H158.866C159.026 30.2542 159.162 30.1982 159.274 30.0862C159.386 29.9582 159.442 29.8142 159.442 29.6542V22.1182C159.442 21.9582 159.386 21.8222 159.274 21.7102C159.162 21.5822 159.026 21.5182 158.866 21.5182H151.09C150.93 21.5182 150.786 21.5822 150.658 21.7102C150.546 21.8222 150.49 21.9582 150.49 22.1182V29.6542C150.49 29.8142 150.546 29.9582 150.658 30.0862C150.786 30.1982 150.93 30.2542 151.09 30.2542ZM164.635 32.8462V15.5902H178.771C179.347 15.5902 179.875 15.7342 180.355 16.0222C180.835 16.3102 181.211 16.6942 181.483 17.1742C181.771 17.6382 181.915 18.1502 181.915 18.7102V23.5582C181.915 24.1342 181.771 24.6622 181.483 25.1422C181.211 25.6062 180.835 25.9822 180.355 26.2702C179.875 26.5422 179.347 26.6782 178.771 26.6782L167.227 26.7022V32.8462H164.635ZM167.827 24.0622H178.723C178.883 24.0622 179.019 24.0062 179.131 23.8942C179.243 23.7822 179.299 23.6462 179.299 23.4862V18.7822C179.299 18.6222 179.243 18.4862 179.131 18.3742C179.019 18.2462 178.883 18.1822 178.723 18.1822H167.827C167.667 18.1822 167.523 18.2462 167.395 18.3742C167.283 18.4862 167.227 18.6222 167.227 18.7822V23.4862C167.227 23.6462 167.283 23.7822 167.395 23.8942C167.523 24.0062 167.667 24.0622 167.827 24.0622Z" fill="white"/>
<path d="M58.5386 11.4012C56.6268 7.16004 53.5168 4.09568 49.2658 2.28829C43.4976 -0.176335 37.4903 -0.482358 31.3745 0.575376C24.9397 1.68857 19.1367 4.29902 13.8572 8.1233C12.8042 8.88732 11.7839 9.69655 10.7492 10.477C10.6981 10.4174 10.6491 10.3579 10.5979 10.3004L16.773 4.50441L16.6197 4.14908C16.0635 4.29286 15.4133 4.29697 14.9655 4.60094C10.099 7.92407 6.10976 12.077 3.2369 17.2732C1.1615 21.0153 -0.100095 24.9568 0.0062313 29.2882C0.0502751 32.5308 1.28864 35.642 3.48227 38.0213C4.99332 39.6952 6.83358 40.9377 8.75359 42.1289C12.5875 44.493 16.728 45.6985 21.1754 45.9409C28.3646 46.3353 35.143 44.7476 41.5 41.4225C43.6981 40.2783 45.8025 38.9611 47.7936 37.4831C50.2048 35.6652 52.3216 33.4836 54.0689 31.0155C56.7271 27.333 59.1112 23.5723 59.4977 18.8423C59.7124 16.2689 59.6101 13.7796 58.5386 11.4012ZM53.3327 17.8708C53.0821 20.4412 52.3502 22.9407 51.1756 25.2381C47.8815 31.7179 42.5346 35.8543 35.9301 38.3828C31.0718 40.2477 26.0132 40.4796 21.0424 38.7936C17.8404 37.705 15.1556 35.7558 13.3317 32.7838C13.1794 32.5222 12.9915 32.283 12.7735 32.0733C12.5295 31.8812 12.2704 31.7096 11.9986 31.5599C11.9986 31.9336 11.8514 32.3813 11.9986 32.675C14.4809 37.6043 18.2902 40.8597 23.7537 41.9769C25.0456 42.2485 26.3535 42.4364 27.6694 42.5397C28.9862 42.6363 30.3152 42.5624 31.6771 42.6199C30.5423 42.8458 29.4115 43.2216 28.2686 43.2688C25.1401 43.3962 22.0219 43.3552 18.967 42.4104C15.1045 41.2171 12.0477 39.083 10.0684 35.4621C8.47755 32.556 7.93978 29.4917 8.59409 26.2465C9.49197 21.7078 11.6818 17.5282 14.898 14.215C18.1377 10.8117 21.9924 8.05851 26.2565 6.10231C30.6322 4.08131 35.2533 3.35218 39.9685 4.25383C43.4138 4.91927 46.4421 6.53771 48.1474 9.88138C49.3743 12.2741 49.9385 14.7757 48.9919 17.4273C48.538 18.6925 48.0512 19.9452 47.6137 21.2166C47.536 21.4425 47.6137 21.7239 47.6341 21.9806C47.8876 21.9684 48.1638 22.0156 48.3866 21.9252C48.6361 21.8261 48.8499 21.6536 49.0001 21.4302C50.374 19.171 51.5886 16.8275 51.6274 14.0918C51.6479 12.6541 51.5314 11.1917 51.4824 9.87317C52.9442 12.2678 53.5934 15.0741 53.3327 17.8708Z" fill="white"/>
</svg>
